PathFileType	4	(X/Y/Z)	C:/Users/opensim2020/Desktop/walking_exp_matlab/subject02_walking13_straight_01.trc																																																																																																																									
DataRate	CameraRate	NumFrames	NumMarkers	Units	OrigDataRate	OrigDataStartFrame	OrigNumFrames																																																																																																																					
100	100	7	41	mm	100	404	140																																																																																																																					
Frame#	Time	LFHD			RFHD			LBHD			RBHD			C7			T10			CLAV			STRN			RBAK			LSHO			LUPA			LELB			LFRM			LWRA			LWRB			LFIN			RSHO			RUPA			RELB			RFRM			RWRA			RWRB			RFIN			LASI			RASI			LPSI			RPSI			LTHI			LKNE			LTIB			LANK			LHEE			LTOE			RTHI			RKNE			RTIB			RANK			RHEE			RTOE			*39			*40		
		X1	Y1	Z1	X2	Y2	Z2	X3	Y3	Z3	X4	Y4	Z4	X5	Y5	Z5	X6	Y6	Z6	X7	Y7	Z7	X8	Y8	Z8	X9	Y9	Z9	X10	Y10	Z10	X11	Y11	Z11	X12	Y12	Z12	X13	Y13	Z13	X14	Y14	Z14	X15	Y15	Z15	X16	Y16	Z16	X17	Y17	Z17	X18	Y18	Z18	X19	Y19	Z19	X20	Y20	Z20	X21	Y21	Z21	X22	Y22	Z22	X23	Y23	Z23	X24	Y24	Z24	X25	Y25	Z25	X26	Y26	Z26	X27	Y27	Z27	X28	Y28	Z28	X29	Y29	Z29	X30	Y30	Z30	X31	Y31	Z31	X32	Y32	Z32	X33	Y33	Z33	X34	Y34	Z34	X35	Y35	Z35	X36	Y36	Z36	X37	Y37	Z37	X38	Y38	Z38	X39	Y39	Z39	X40	Y40	Z40	X41	Y41	Z41
																																																																																																																												
1	0	-954.67596	1728.51013	-1003.43256	-961.4353	1706.49951	-857.54156	-1082.40356	1655.34802	-1018.64832	-1105.03296	1631.77295	-878.65503	-1145.72034	1521.09216	-932.46509	-1224.77307	1253.40393	-912.89124	-1016.95654	1440.11108	-966.09656	-980.45264	1264.06409	-960.435	-1205.35767	1356.1875	-851.64124	-1110.48779	1486.61304	-1121.28003	-1177.34949	1299.36462	-1201.52905	-1215.99524	1165.77026	-1221.18774	-1237.74402	1037.02148	-1244.87085	-1194.21741	901.43384	-1241.6145	-1246.79504	913.37097	-1258.21887	-1238.41858	847.8916	-1272.17114	-1034.7334	1483.07556	-764.26349	-1034.95227	1294.3219	-670.71118	-1003.73761	1149.06604	-655.99121	-955.16248	1037.92297	-650.70844	-893.69757	921.61511	-687.651	-930.25354	909.54437	-644.20569	-880.86096	856.85059	-652.39667	-1036.10925	978.21881	-1075.80701	-1015.03088	955.08588	-821.57941	-1233.87585	1033.93127	-974.35413	-1226.66003	1033.4989	-859.46112	-1036.88452	687.26392	-1156.30579	-997.13037	493.25562	-1136.4043	-1060.34692	313.00439	-1121.87598	-1063.98853	90.06984	-1089.21948	-1084.51025	64.77724	-1028.94116	-924.51117	42.46922	-1137.21399	-1125.15942	654.14374	-764.26093	-1162.28564	447.9097	-813.40527	-1235.04578	273.0975	-806.68872	-1290.68445	87.6694	-848.10516	-1336.19214	34.63655	-901.88214	-1144.24292	30.85913	-841.49146	-1058.27759	1792.07373	-914.44641	2845.88062	1034.25537	-3357.20337
2	0.01	-943.08887	1726.91907	-1004.75305	-949.96411	1705.1969	-858.92688	-1070.96741	1653.77258	-1020.13776	-1093.38342	1630.38574	-880.02954	-1134.12646	1519.56665	-933.92908	-1213.29492	1251.86951	-914.82886	-1005.11646	1438.49304	-967.27539	-968.71356	1262.43079	-961.16101	-1195.86169	1355.66223	-852.43561	-1098.41504	1484.86633	-1122.56079	-1168.61682	1299.01379	-1204.56738	-1207.3916	1165.33386	-1221.88733	-1231.96716	1037.19617	-1245.77686	-1191.39514	900.93451	-1243.48926	-1243.12439	913.32336	-1259.39172	-1237.51221	848.66614	-1273.6449	-1023.34674	1481.80762	-765.51349	-1023.45923	1293.32129	-672.0058	-990.93329	1148.1853	-657.25806	-939.83136	1037.53943	-653.03766	-876.88934	922.52802	-690.31238	-913.36145	909.48535	-647.14679	-863.38495	857.67865	-655.75464	-1023.26166	976.59589	-1076.64636	-1004.65503	953.7569	-821.46661	-1222.00098	1032.28394	-976.77478	-1216.16333	1031.86072	-862.03516	-1022.02008	686.33929	-1156.89441	-980.03992	492.03571	-1136.66553	-1033.27612	307.97318	-1126.98718	-1024.95032	84.31728	-1097.69824	-1046.55969	58.35678	-1038.6875	-881.33386	44.10627	-1141.52283	-1119.31201	653.5	-765.5567	-1159.40198	447.98102	-813.92511	-1233.65759	273.47983	-807.23035	-1290.32861	88.09118	-848.51917	-1335.94507	35.28017	-902.37512	-1144.04065	30.7907	-841.42151	-1046.91797	1790.74048	-916.13239	2845.92285	1034.25549	-3357.24707
3	0.02	-931.48254	1725.23657	-1006.10492	-938.35461	1703.62549	-860.5918	-1059.04907	1651.97876	-1021.59937	-1081.67297	1628.77881	-881.67035	-1122.38086	1517.76282	-935.5481	-1201.66858	1250.12305	-916.94403	-993.1543	1436.72937	-968.62427	-956.83496	1260.66394	-962.03906	-1184.48584	1354.00574	-854.14484	-1086.23828	1482.82837	-1124.02893	-1158.1394	1297.78308	-1205.42297	-1198.66638	1164.73206	-1222.65234	-1225.86401	1037.23633	-1246.66882	-1188.18091	899.90192	-1245.12646	-1239.96155	913.97974	-1260.60803	-1235.94287	849.07153	-1275.43359	-1012.49414	1480.48999	-767.03772	-1010.81616	1292.03088	-673.52191	-977.30383	1147.06104	-658.46149	-925.15747	1036.85693	-654.74231	-860.80988	923.40204	-693.53601	-896.58978	909.31232	-650.14551	-846.02264	858.45538	-659.41272	-1010.33539	974.85144	-1077.53857	-994.75208	952.10291	-822.0838	-1210.01404	1030.48425	-979.27985	-1205.46497	1029.9939	-864.78156	-1007.63367	684.90839	-1157.55286	-963.50549	490.71927	-1137.23438	-1006.7583	303.60202	-1131.69983	-986.27173	79.82518	-1105.89343	-1008.36761	52.55215	-1047.9502	-838.47626	46.98225	-1145.28894	-1113.40356	652.89246	-766.7514	-1156.11108	447.25287	-815.22839	-1232.17444	273.99936	-808.00226	-1289.98584	88.86815	-848.98419	-1335.70129	35.95437	-902.909	-1144.06372	30.77675	-841.30261	-1035.5144	1789.08984	-917.92578	2845.2749	1034.20422	-3360.32715
4	0.03	-919.74225	1723.40771	-1007.72382	-926.84705	1701.98096	-862.17444	-1047.7085	1650.0365	-1023.39111	-1070.18677	1626.71716	-883.30548	-1110.61206	1515.77173	-937.24207	-1189.89246	1248.25867	-919.06598	-981.06036	1434.75488	-970.05811	-944.83362	1258.68018	-963.05786	-1171.0658	1351.36206	-856.75995	-1073.89294	1480.78503	-1125.48596	-1147.48718	1296.349	-1206.44495	-1189.76282	1163.97021	-1223.40173	-1219.30176	1037.08765	-1247.54688	-1184.56079	899.20935	-1246.82227	-1237.88538	915.89276	-1260.87305	-1233.88257	849.51263	-1276.63452	-1000.72034	1478.65503	-768.54541	-999.2511	1290.59546	-674.91437	-964.0285	1145.69373	-659.78119	-910.09485	1036.16077	-657.14362	-844.27887	923.67529	-696.44452	-880.03564	909.00183	-653.16406	-828.78418	858.92554	-662.9859	-997.02576	972.72339	-1078.39526	-983.35455	951.0744	-821.59393	-1197.80054	1028.42188	-981.97479	-1194.30872	1027.66113	-867.78912	-993.6947	682.86377	-1158.03833	-947.30652	489.23425	-1137.92212	-980.8653	299.66379	-1135.98364	-948.33893	76.62838	-1113.57251	-969.78815	47.30268	-1056.6394	-797.34174	50.54556	-1148.60962	-1107.00293	652.2168	-767.97711	-1153.09082	447.33276	-815.56433	-1230.75793	274.74097	-808.74396	-1289.58325	89.63072	-849.59534	-1335.073	36.74056	-903.64362	-1144.0177	30.63996	-841.15076	-1024.01819	1787.29492	-919.81665	2845.81982	1034.51831	-3357.42236
5	0.04	-908.13892	1721.49121	-1009.56006	-915.2453	1700.22583	-863.91254	-1035.974	1647.75305	-1025.15955	-1058.33154	1624.76978	-884.93872	-1098.74341	1513.63489	-939.04462	-1178.00818	1246.22449	-921.41217	-968.93988	1432.65308	-971.45459	-932.83093	1256.67444	-964.19043	-1161.26648	1350.09534	-857.91559	-1061.48669	1478.78699	-1127.18701	-1136.7373	1294.7616	-1207.62744	-1180.89819	1163.33765	-1224.2063	-1212.63757	1036.83972	-1248.35498	-1180.55664	898.26923	-1248.3241	-1231.72827	914.51117	-1262.6947	-1231.19434	849.76691	-1278.03735	-989.45032	1476.66052	-770.24756	-986.9765	1289.06995	-676.44928	-951.17554	1144.11353	-661.1615	-894.95685	1035.20959	-659.659	-828.19958	924.09955	-699.56268	-863.77966	908.55237	-656.43146	-811.466	859.11926	-666.54395	-983.6012	970.84888	-1079.34753	-972.54047	949.59851	-822.00116	-1185.38086	1026.18579	-984.77515	-1183.55933	1025.65222	-870.73029	-980.37012	680.2937	-1158.57971	-931.48346	487.66599	-1138.66077	-954.98956	296.46384	-1140.00134	-911.50146	74.63442	-1120.86267	-932.98309	44.13391	-1064.90613	-758.00159	55.36375	-1152.14514	-1100.30261	651.30096	-769.24371	-1149.55908	447.09265	-816.55975	-1228.85754	275.38858	-809.53296	-1289.0824	90.51493	-850.24664	-1334.90308	37.96659	-904.45099	-1143.90198	30.63018	-841.0437	-1012.60962	1785.32629	-921.74542	NaN	NaN	NaN
6	0.05	-896.74207	1719.55725	-1011.56146	-903.53235	1698.37695	-865.71875	-1024.2168	1645.64282	-1026.99023	-1046.57764	1622.60571	-886.89728	-1086.77844	1511.32312	-940.96814	-1165.9585	1243.99438	-923.88013	-956.72681	1430.4646	-972.98047	-920.58582	1254.46753	-965.32422	-1149.54883	1348.11182	-860.02747	-1048.91638	1476.29333	-1128.91504	-1125.85852	1293.04688	-1208.81616	-1171.70447	1162.04492	-1225.03784	-1205.8905	1036.53931	-1249.10803	-1176.16528	897.46185	-1249.80627	-1227.51514	915.42181	-1263.474	-1228.31689	850.19458	-1279.17847	-977.80585	1474.74072	-771.82068	-974.26599	1287.14282	-677.90131	-938.20508	1142.41296	-662.55194	-881.3717	1033.95728	-661.83893	-812.17914	924.2262	-702.5354	-847.64545	907.8927	-659.66248	-794.63629	859.36371	-670.25836	-969.89844	968.90131	-1080.32043	-961.53528	947.83472	-822.45892	-1172.76172	1023.76471	-987.65204	-1172.27161	1023.19043	-873.9516	-967.56189	677.21783	-1159.20068	-916.05573	485.98648	-1139.31592	-930.12518	294.00726	-1143.86267	-876.047	73.75732	-1127.56689	-897.84735	42.24223	-1072.36145	-720.65002	60.73967	-1155.09167	-1093.44385	650.32306	-770.38239	-1144.92908	446.46649	-817.50616	-1226.93347	276.23724	-810.54065	-1288.56348	91.65517	-850.95148	-1334.43713	39.07032	-905.37	-1143.71692	30.39076	-840.83264	-1001.10577	1783.25049	-923.76361	2845.29932	1034.36975	-3360.34131
7	0.06	-884.75348	1717.48816	-1013.09955	-891.83319	1696.52759	-867.58905	-1012.31482	1643.30542	-1028.91223	-1034.54419	1620.4834	-888.72131	-1075.02173	1509.14075	-942.90314	-1153.84668	1241.74023	-926.4682	-944.41418	1428.22742	-974.63605	-908.25995	1252.328	-966.5708	-1138.54822	1345.8031	-862.18542	-1036.22498	1473.81006	-1130.79517	-1113.55872	1290.66003	-1208.45178	-1162.51868	1161.17969	-1225.94958	-1198.64539	1036.00598	-1249.83643	-1171.18481	896.56653	-1251.22473	-1222.37341	915.38318	-1264.37109	-1224.52625	850.20184	-1280.16626	-966.22778	1472.51184	-773.57819	-962.06427	1285.19434	-679.58868	-925.427	1140.52368	-663.88892	-866.85748	1033.02148	-663.95721	-796.65631	924.36066	-705.94	-831.52765	907.01105	-663.03772	-777.9353	859.47253	-674.05536	-955.89673	966.79187	-1081.32166	-950.38049	945.90826	-823.12811	-1159.83887	1021.21173	-990.72052	-1160.50513	1020.47516	-877.40399	-955.237	673.89838	-1160.25598	-900.8183	484.22391	-1140.10938	-905.97614	291.85385	-1147.22668	-842.22949	73.8783	-1133.53589	-863.7063	40.98486	-1079.02527	-685.51715	66.74325	-1157.80676	-1086.35364	649.50861	-771.4173	-1140.35828	446.15082	-818.44025	-1224.60083	277.05209	-811.58966	-1287.823	92.93861	-851.61304	-1333.85828	41.18898	-906.12921	-1143.36255	30.21391	-840.71185	-989.60492	1781.12793	-925.84174	2846.00024	1034.22131	-3356.82568
